<mxfile host="app.diagrams.net" agent="Mozilla/5.0 (Macintosh; Intel Mac OS X 10_15_7) AppleWebKit/537.36 (KHTML, like Gecko) Chrome/135.0.0.0 Safari/537.36" version="26.2.14">
  <diagram name="Page-1" id="4532cErnmV31WtSn0NQ7">
    <mxGraphModel dx="970" dy="556" grid="1" gridSize="10" guides="1" tooltips="1" connect="1" arrows="1" fold="1" page="1" pageScale="1" pageWidth="850" pageHeight="1100" math="0" shadow="0">
      <root>
        <mxCell id="0" />
        <mxCell id="1" parent="0" />
        <mxCell id="LoMWz2reAISPucn6bFNI-1" value="" style="rounded=1;whiteSpace=wrap;html=1;fillColor=#d0cee2;strokeColor=#56517e;shadow=1;sketch=1;curveFitting=1;jiggle=2;glass=1;" vertex="1" parent="1">
          <mxGeometry x="360" y="160" width="200" height="80" as="geometry" />
        </mxCell>
        <mxCell id="LoMWz2reAISPucn6bFNI-2" value="" style="rounded=1;whiteSpace=wrap;html=1;fillColor=#d0cee2;strokeColor=#56517e;sketch=1;curveFitting=1;jiggle=2;shadow=1;glass=1;" vertex="1" parent="1">
          <mxGeometry x="360" y="40" width="200" height="80" as="geometry" />
        </mxCell>
        <mxCell id="LoMWz2reAISPucn6bFNI-3" value="" style="rounded=1;whiteSpace=wrap;html=1;fillColor=#d0cee2;strokeColor=#56517e;gradientColor=none;glass=1;sketch=1;curveFitting=1;jiggle=2;shadow=1;" vertex="1" parent="1">
          <mxGeometry x="360" y="280" width="200" height="80" as="geometry" />
        </mxCell>
        <mxCell id="LoMWz2reAISPucn6bFNI-4" value="&lt;h1&gt;First Number&lt;/h1&gt;" style="text;html=1;align=center;verticalAlign=middle;resizable=0;points=[];autosize=1;strokeColor=none;fillColor=none;" vertex="1" parent="1">
          <mxGeometry x="170" y="50" width="170" height="70" as="geometry" />
        </mxCell>
        <mxCell id="LoMWz2reAISPucn6bFNI-6" value="&lt;h1&gt;Second Number&lt;/h1&gt;" style="text;html=1;align=center;verticalAlign=middle;resizable=0;points=[];autosize=1;strokeColor=none;fillColor=none;" vertex="1" parent="1">
          <mxGeometry x="130" y="170" width="210" height="70" as="geometry" />
        </mxCell>
        <mxCell id="LoMWz2reAISPucn6bFNI-7" value="&lt;h1&gt;Sum Number&lt;/h1&gt;" style="text;html=1;align=center;verticalAlign=middle;resizable=0;points=[];autosize=1;strokeColor=none;fillColor=none;" vertex="1" parent="1">
          <mxGeometry x="170" y="285" width="170" height="70" as="geometry" />
        </mxCell>
        <mxCell id="LoMWz2reAISPucn6bFNI-8" value="&lt;pre&gt;&lt;font style=&quot;font-size: 16px;&quot;&gt;Find sum&lt;/font&gt;&lt;/pre&gt;" style="rounded=1;whiteSpace=wrap;html=1;fillColor=#e1d5e7;strokeColor=#9673a6;shadow=0;glass=1;" vertex="1" parent="1">
          <mxGeometry x="400" y="390" width="120" height="60" as="geometry" />
        </mxCell>
      </root>
    </mxGraphModel>
  </diagram>
</mxfile>
